<svg xmlns="http://www.w3.org/2000/svg" xmlns:xlink="http://www.w3.org/1999/xlink" aria-hidden="true" role="img" class="iconify iconify--logos" width="31.88" height="32" preserveAspectRatio="xMidYMid meet" viewBox="0 0 256 257"><defs><linearGradient id="IconifyId1813088fe1fbc02fb466" x1="-.828%" x2="57.636%" y1="7.652%" y2="78.411%"><stop offset="0%" stop-color="#41D1FF"></stop><stop offset="100%" stop-color="#BD34FE"></stop></linearGradient><linearGradient id="IconifyId1813088fe1fbc02fb467" x1="43.376%" x2="50.316%" y1="2.242%" y2="89.03%"><stop offset="0%" stop-color="#FFEA83"></stop><stop offset="8.333%" stop-color="#FFDD35"></stop><stop offset="100%" stop-color="#FFA800"></stop></linearGradient></defs><path fill="url(#IconifyId1813088fe1fbc02fb466)" d="M255.153 37.938L134.897 252.976c-2.483 4.44-8.862 4.466-11.382.048L.875 37.958c-3.213-5.852 2.46-12.605 8.766-10.741l123.814 35.672l121.048-35.631c6.37-1.875 11.263 5.508 8.646 11.35Z"></path><path fill="url(#IconifyId1813088fe1fbc02fb467)" d="m185.432.063L96.44 17.501a8 8 0 0 0-5.974 5.976L65.674 196.925a7.99 7.99 0 0 0 9.42 9.302l90.348-20.879l90.347 20.88a8 8 0 0 0 9.42-9.302L188.53 6.478a8 8 0 0 0-3.098-6.415Z"></path></svg>